<?xml version="1.0" encoding="UTF-8"?>
<svg viewBox="0 0 129 43" xmlns="http://www.w3.org/2000/svg">
<path d="m8.2745 42.046c-0.33298 0-0.65787-0.0043-0.98822-0.0118-0.68432-0.0089-1.367-0.0688-2.0426-0.1792-0.62989-0.1091-1.2401-0.3121-1.8104-0.6023-0.56516-0.2878-1.0806-0.6651-1.5266-1.1175-0.45252-0.4471-0.82927-0.9656-1.1153-1.5351-0.28917-0.5731-0.48929-1.1875-0.59339-1.8216-0.11239-0.6814-0.17318-1.3704-0.18184-2.0611-0.0069939-0.2318-0.016064-1.0036-0.016064-1.0036v-25.393s0.0096167-0.76001 0.016064-0.98338c0.0083266-0.68954 0.068787-1.3774 0.18086-2.0578 0.10431-0.63589 0.3046-1.252 0.59394-1.827 0.28495-0.56907 0.65956-1.088 1.1093-1.5367 0.44928-0.45297 0.96641-0.83223 1.5326-1.124 0.56907-0.28921 1.1781-0.49075 1.8067-0.59787 0.67775-0.11144 1.3628-0.17166 2.0496-0.18016l0.98604-0.01363h112.31l0.998 0.01396c0.68 0.0081318 1.359 0.06788 2.031 0.17873 0.635 0.1085 1.25 0.31148 1.826 0.60227 1.134 0.58791 2.057 1.518 2.639 2.66 0.284 0.57109 0.482 1.1822 0.585 1.8126 0.113 0.68588 0.176 1.3792 0.189 2.0744 4e-3 0.3113 4e-3 0.64569 4e-3 0.97854 9e-3 0.41221 9e-3 0.80452 9e-3 1.2001v23.005c0 0.3994 0 0.789-9e-3 1.1819 0 0.3575 0 0.6849-5e-3 1.022-0.012 0.6828-0.075 1.3637-0.186 2.0374-0.102 0.6387-0.301 1.2578-0.591 1.8357-0.288 0.5633-0.662 1.0773-1.109 1.5232-0.447 0.4548-0.963 0.8344-1.53 1.124-0.574 0.2924-1.188 0.4961-1.822 0.6043-0.676 0.111-1.359 0.1709-2.043 0.1793-0.327 0.0077-0.654 0.0116-0.981 0.0118l-1.184 0.0022-111.13-0.0021z"/>
<path d="m26.116 21.353c0.0118-0.9174 0.2541-1.817 0.7043-2.615 0.4503-0.798 1.0939-1.4684 1.8709-1.949-0.4936-0.7091-1.1449-1.2928-1.902-1.7045s-1.5992-0.6402-2.4595-0.6673c-1.8351-0.1938-3.6141 1.1045-4.5493 1.1045-0.9531 0-2.3929-1.0852-3.9433-1.0531-1.0028 0.0325-1.9802 0.3258-2.8368 0.8513s-1.5634 1.2652-2.0513 2.1471c-2.1134 3.6808-0.537 9.0901 1.4877 12.065 1.0129 1.4569 2.1966 3.0842 3.7456 3.0265 1.5158-0.0632 2.0818-0.9722 3.9116-0.9722 1.8128 0 2.3439 0.9722 3.9243 0.9355 1.6265-0.0265 2.6512-1.4633 3.6286-2.9339 0.7278-1.0381 1.2878-2.1854 1.6593-3.3994-0.9449-0.402-1.7513-1.075-2.3186-1.9349s-0.8704-1.8688-0.8715-2.9009zm-2.9851-8.8925c0.8869-1.0709 1.3238-2.4473 1.218-3.837-1.3549 0.14314-2.6065 0.79449-3.5053 1.8243-0.4395 0.5031-0.7761 1.0883-0.9905 1.7223-0.2145 0.6341-0.3026 1.3044-0.2593 1.9726 0.6776 0.0071 1.3481-0.1407 1.9608-0.4321s1.1517-0.7188 1.5763-1.2501zm22.146 16.41h-5.1727l-1.2422 3.6895h-2.1911l4.8996-13.65h2.2763l4.8995 13.65h-2.2283l-1.2411-3.6895zm-4.637-1.7026h4.1002l-2.0213-5.9877h-0.0566l-2.0223 5.9877zm18.688 0.4166c0 3.0926-1.6457 5.0796-4.129 5.0796-0.629 0.0331-1.2547-0.1127-1.8053-0.4206-0.5505-0.308-1.0037-0.7656-1.3077-1.3206h-0.047v4.9294h-2.0309v-13.244h1.9659v1.6554h0.0373c0.318-0.5524 0.7789-1.0076 1.3336-1.3175 0.5547-0.3098 1.1826-0.4625 1.8168-0.442 2.511 0 4.1663 1.9968 4.1663 5.0808zm-2.0875 0c0-2.0149-1.0351-3.3396-2.6145-3.3396-1.5518 0-2.5954 1.3525-2.5954 3.3395 0 2.0053 1.0436 3.3483 2.5954 3.3483 1.5794 0 2.6145-1.3149 2.6145-3.3482zm12.977 0c0 3.0926-1.6455 5.0796-4.1289 5.0796-0.6291 0.033-1.2547-0.1127-1.8052-0.4207-0.5506-0.3079-1.0038-0.7655-1.3078-1.3205h-0.047v4.9294h-2.0308v-13.244h1.9657v1.6554h0.0374c0.3179-0.5524 0.7788-1.0076 1.3335-1.3175 0.5548-0.3098 1.1826-0.4625 1.8168-0.442 2.5112 0 4.1663 1.9968 4.1663 5.0808zm-2.0873 0c0-2.0149-1.0352-3.3396-2.6147-3.3396-1.5517 0-2.5954 1.3525-2.5954 3.3395 0 2.0053 1.0437 3.3483 2.5954 3.3483 1.5795 0 2.6147-1.3149 2.6147-3.3482zm9.2845 1.1722c0.1505 1.3536 1.4578 2.2425 3.2442 2.2425 1.7118 0 2.9434-0.8889 2.9434-2.1095 0-1.0595-0.7428-1.6939-2.5014-2.1286l-1.7589-0.4262c-2.4918-0.6055-3.6487-1.7777-3.6487-3.6799 0-2.3552 2.0405-3.9728 4.9379-3.9728 2.8675 0 4.8333 1.6176 4.8994 3.9728h-2.0501c-0.1227-1.3622-1.2421-2.1845-2.8782-2.1845-1.6359 0-2.7554 0.832-2.7554 2.0428 0 0.9651 0.7151 1.533 2.4641 1.9676l1.4951 0.3694c2.7843 0.6623 3.9412 1.7873 3.9412 3.7839 0 2.5538-2.0223 4.1533-5.2389 4.1533-3.0095 0-5.0414-1.562-5.1726-4.0309l2.0789 1e-4zm12.716-8.504v2.3551h1.8815v1.6178h-1.8815v5.4865c0 0.8523 0.3767 1.2495 1.2039 1.2495 0.2233-4e-3 0.4463-0.0197 0.668-0.0473v1.6082c-0.3718 0.0698-0.7498 0.1014-1.128 0.0943-2.0031 0-2.7843-0.7567-2.7843-2.6869v-5.7043h-1.4386v-1.6178h1.4386v-2.3551h2.0404zm2.9712 7.3318c0-3.1314 1.8334-5.099 4.6925-5.099 2.869 0 4.693 1.9676 4.693 5.099 0 3.1398-1.815 5.0989-4.6932 5.0989-2.8771 0-4.6923-1.9591-4.6923-5.0989zm7.3165 0c0-2.148-0.9785-3.4159-2.6242-3.4159-1.6455 0-2.6231 1.2775-2.6231 3.4159 0 2.1566 0.9776 3.4147 2.6231 3.4147 1.6457 0 2.6242-1.2581 2.6242-3.4147zm3.744-4.9767h1.937v1.694h0.047c0.131-0.5291 0.439-0.9966 0.872-1.3241 0.434-0.3274 0.966-0.4948 1.508-0.474 0.234-8e-4 0.467 0.0248 0.695 0.0762v1.9108c-0.295-0.0908-0.603-0.1325-0.912-0.1234-0.295-0.0121-0.589 0.0402-0.862 0.1533s-0.519 0.2843-0.72 0.5019c-0.201 0.2175-0.353 0.4762-0.445 0.7583-0.092 0.2822-0.123 0.5811-0.089 0.8762v5.903h-2.031v-9.9522zm14.423 7.0291c-0.273 1.8067-2.022 3.0465-4.26 3.0465-2.879 0-4.665-1.9397-4.665-5.0517 0-3.1216 1.796-5.1462 4.579-5.1462 2.738 0 4.459 1.8914 4.459 4.9089v0.6999h-6.988v0.1235c-0.032 0.3662 0.013 0.7352 0.134 1.0824 0.12 0.3472 0.313 0.6646 0.564 0.9312 0.252 0.2667 0.557 0.4764 0.896 0.6152 0.338 0.1389 0.702 0.2037 1.068 0.1901 0.479 0.0453 0.961-0.0665 1.373-0.3187 0.411-0.2522 0.731-0.6314 0.911-1.0811h1.929zm-6.865-2.9703h4.946c0.018-0.3293-0.031-0.6589-0.146-0.968-0.114-0.3091-0.291-0.5911-0.519-0.8283s-0.502-0.4244-0.805-0.55c-0.303-0.1255-0.629-0.1867-0.957-0.1796-0.331-2e-3 -0.658 0.062-0.964 0.1881s-0.585 0.312-0.819 0.5468c-0.234 0.2349-0.42 0.514-0.546 0.8214-0.127 0.3074-0.191 0.637-0.19 0.9696zm-71.334-18.032c0.4258-0.03074 0.853 0.03396 1.2509 0.18943s0.7566 0.39784 1.0501 0.70961c0.2935 0.31178 0.5146 0.6852 0.6472 1.0933 0.1327 0.4081 0.1736 0.8408 0.1199 1.2668 0 2.0953-1.1259 3.2999-3.0681 3.2999h-2.3553v-6.5592l2.3553 1.1e-4zm-1.3425 5.6313h1.2294c0.3042 0.0183 0.6087-0.0319 0.8912-0.1469s0.536-0.2919 0.742-0.5179c0.2059-0.2259 0.3592-0.4952 0.4487-0.7883 0.0894-0.2931 0.1128-0.6025 0.0684-0.9058 0.0412-0.3021 0.0155-0.6097-0.0754-0.9006-0.0908-0.2909-0.2445-0.558-0.45-0.7822-0.2055-0.2241-0.4577-0.39981-0.7387-0.5144-0.2809-0.11459-0.5835-0.16525-0.8862-0.14837h-1.2294v4.7045zm5.5547-1.5495c-0.031-0.3252 6e-3 -0.6534 0.1086-0.9635 0.1025-0.3101 0.2684-0.5951 0.4869-0.8369 0.2184-0.2419 0.4848-0.4351 0.7818-0.5673 0.2971-0.1322 0.6184-0.2005 0.9433-0.2005 0.3248 0 0.6461 0.0683 0.9432 0.2005 0.297 0.1322 0.5634 0.3254 0.7819 0.5673 0.2185 0.2418 0.3843 0.5268 0.4868 0.8369 0.1026 0.3101 0.1396 0.6383 0.1086 0.9635 0.0316 0.3257-0.0048 0.6544-0.1071 0.9651-0.1022 0.3106-0.2679 0.5963-0.4865 0.8386-0.2186 0.2424-0.4851 0.4361-0.7825 0.5686s-0.6191 0.201-0.9444 0.201-0.647-0.0685-0.9445-0.201c-0.2974-0.1325-0.5639-0.3262-0.7825-0.5686-0.2186-0.2423-0.3843-0.528-0.4865-0.8386-0.1022-0.3107-0.1387-0.6394-0.1071-0.9651zm3.6423 0c0-1.0729-0.4792-1.7004-1.3201-1.7004-0.8442 0-1.319 0.6275-1.319 1.7004 0 1.0816 0.4749 1.7042 1.319 1.7042 0.8409 0 1.3201-0.6269 1.3201-1.7042zm7.1683 2.4771h-1.0075l-1.017-3.6455h-0.0768l-1.0127 3.6455h-0.9978l-1.3564-4.9499h0.9849l0.8816 3.777h0.0725l1.0118-3.777h0.9316l1.0117 3.777h0.0768l0.8772-3.777h0.9712l-1.3511 4.9499zm2.4919-4.9498h0.9348v0.7863h0.0726c0.1231-0.2824 0.3308-0.5192 0.594-0.6773s0.5689-0.2296 0.8745-0.2046c0.2394-0.0181 0.4799 0.0182 0.7034 0.1063 0.2236 0.088 0.4247 0.2255 0.5882 0.4023 0.1636 0.1768 0.2855 0.3884 0.3568 0.619 0.0712 0.2307 0.09 0.4745 0.0549 0.7134v3.2042h-0.9712v-2.9589c0-0.7954-0.3437-1.191-1.0619-1.191-0.1625-0.0076-0.3248 0.0203-0.4757 0.0816-0.1508 0.0614-0.2867 0.1549-0.3983 0.274s-0.1963 0.2611-0.2482 0.4163c-0.052 0.1551-0.07 0.3197-0.0528 0.4825v2.8957h-0.9711v-4.9498zm5.7266-1.9323h0.971v6.8821h-0.971v-6.8821zm2.3211 4.405c-0.031-0.3253 6e-3 -0.6535 0.1086-0.9636 0.1025-0.3101 0.2684-0.5952 0.4869-0.8371 0.2186-0.2418 0.4849-0.4351 0.782-0.5673 0.2972-0.1322 0.6185-0.2005 0.9434-0.2005s0.6462 0.0683 0.9433 0.2005 0.5635 0.3255 0.782 0.5673c0.2185 0.2419 0.3844 0.527 0.487 0.8371 0.1025 0.3101 0.1395 0.6383 0.1086 0.9636 0.0314 0.3257-0.0052 0.6543-0.1075 0.9648-0.1024 0.3106-0.2681 0.5961-0.4867 0.8384-0.2186 0.2422-0.4851 0.4358-0.7825 0.5683s-0.619 0.2009-0.9442 0.2009c-0.3253 0-0.6469-0.0684-0.9443-0.2009-0.2973-0.1325-0.5639-0.3261-0.7825-0.5683-0.2185-0.2423-0.3843-0.5278-0.4866-0.8384-0.1024-0.3105-0.139-0.6391-0.1075-0.9648zm3.6423 0c0-1.0729-0.4792-1.7004-1.3201-1.7004-0.8442 0-1.319 0.6275-1.319 1.7004 0 1.0816 0.4749 1.7042 1.319 1.7042 0.8409 0 1.3201-0.6269 1.3201-1.7042zm2.0218 1.0773c0-0.891 0.6595-1.4047 1.8302-1.4777l1.3329-0.0773v-0.4272c0-0.5228-0.3436-0.818-1.0074-0.818-0.5421 0-0.9178 0.2002-1.0255 0.5502h-0.9403c0.0992-0.8503 0.8944-1.3955 2.0107-1.3955 1.2336 0 1.9294 0.6178 1.9294 1.6633v3.382h-0.9349v-0.6956h-0.0768c-0.156 0.2495-0.375 0.4529-0.6346 0.5894-0.2597 0.1366-0.5507 0.2013-0.8434 0.1877-0.2066 0.0216-0.4154-5e-4 -0.6129-0.0651-0.1975-0.0645-0.3794-0.1699-0.534-0.3095-0.1545-0.1396-0.2783-0.3101-0.3633-0.5008-0.085-0.1906-0.1293-0.397-0.1301-0.6059zm3.1631-0.423v-0.4138l-1.2016 0.0772c-0.6777 0.0456-0.9851 0.2776-0.9851 0.7139 0 0.4455 0.3842 0.7048 0.9125 0.7048 0.1548 0.0158 0.3112 0 0.4598-0.0462 0.1486-0.0463 0.2865-0.1222 0.4054-0.2231 0.1188-0.101 0.2163-0.225 0.2866-0.3646s0.1119-0.292 0.1224-0.4482zm2.2433-0.6543c0-1.564 0.7993-2.5548 2.0426-2.5548 0.3075-0.0142 0.6127 0.0598 0.8799 0.2136 0.2673 0.1538 0.4855 0.3809 0.6291 0.6548h0.0726v-2.7187h0.971v6.882h-0.9305v-0.7821h-0.0768c-0.1547 0.2721-0.3805 0.4964-0.6529 0.6486-0.2724 0.1523-0.5809 0.2266-0.8923 0.2151-1.2519 0-2.0427-0.9907-2.0427-2.5585zm1.0032 0c0 1.0498 0.492 1.6817 1.3146 1.6817 0.8185 0 1.3245-0.6409 1.3245-1.6775 0-1.0315-0.5112-1.6815-1.3245-1.6815-0.8174 0-1.3146 0.636-1.3146 1.6773zm7.6101 0c-0.031-0.3252 6e-3 -0.6534 0.1085-0.9635 0.1026-0.3101 0.2684-0.5951 0.4869-0.8369 0.2185-0.2419 0.4848-0.4351 0.7819-0.5673s0.6184-0.2005 0.9432-0.2005c0.3249 0 0.6461 0.0683 0.9432 0.2005s0.5634 0.3254 0.7819 0.5673c0.2185 0.2418 0.3844 0.5268 0.4869 0.8369 0.1026 0.3101 0.1395 0.6383 0.1086 0.9635 0.0316 0.3257-0.0049 0.6544-0.1071 0.9651-0.1023 0.3106-0.268 0.5963-0.4865 0.8386-0.2186 0.2424-0.4851 0.4361-0.7826 0.5686-0.2974 0.1325-0.6191 0.201-0.9444 0.201s-0.647-0.0685-0.9444-0.201-0.564-0.3262-0.7825-0.5686c-0.2186-0.2423-0.3843-0.528-0.4865-0.8386-0.1023-0.3107-0.1388-0.6394-0.1071-0.9651zm3.6423 0c0-1.0729-0.4792-1.7004-1.3201-1.7004-0.8442 0-1.3191 0.6275-1.3191 1.7004 0 1.0816 0.475 1.7042 1.3191 1.7042 0.8409 0 1.3201-0.6269 1.3201-1.7042zm2.3019-2.4727h0.9348v0.7863h0.0726c0.1231-0.2824 0.3307-0.5192 0.594-0.6773 0.2632-0.1581 0.5689-0.2296 0.8745-0.2046 0.2394-0.0181 0.4798 0.0182 0.7034 0.1063 0.2236 0.088 0.4246 0.2255 0.5882 0.4023s0.2855 0.3884 0.3568 0.619c0.0712 0.2307 0.09 0.4745 0.0548 0.7134v3.2042h-0.9711v-2.9589c0-0.7954-0.3437-1.191-1.0619-1.191-0.1626-0.0076-0.3248 0.0203-0.4757 0.0816-0.1509 0.0614-0.2867 0.1549-0.3983 0.274s-0.1963 0.2611-0.2483 0.4163c-0.0519 0.1551-0.0699 0.3197-0.0527 0.4825v2.8957h-0.971l-1e-4 -4.9498zm9.6666-1.2323v1.2549h1.066v0.8227h-1.066v2.5452c0 0.5185 0.212 0.7456 0.696 0.7456 0.124-4e-4 0.247-8e-3 0.37-0.0226v0.8137c-0.174 0.0314-0.351 0.0481-0.528 0.0499-1.08 0-1.51-0.3822-1.51-1.3364v-2.7954h-0.7814v-0.8228h0.7814v-1.2547l0.972-1.1e-4zm2.393-0.69999h0.962v2.7277h0.077c0.129-0.285 0.343-0.5231 0.611-0.6818 0.269-0.1587 0.579-0.2302 0.89-0.2049 0.238-0.0131 0.476 0.0269 0.697 0.1171s0.42 0.2284 0.581 0.4046c0.162 0.1763 0.283 0.3863 0.355 0.6151s0.093 0.4708 0.061 0.7086v3.1957h-0.972v-2.9548c0-0.7907-0.366-1.191-1.052-1.191-0.167-0.0138-0.335 0.0093-0.492 0.0677-0.157 0.0583-0.3 0.1504-0.418 0.2699-0.118 0.1196-0.208 0.2636-0.265 0.422-0.057 0.1585-0.079 0.3275-0.064 0.4953v2.8909h-0.971v-6.8821zm9.897 5.5455c-0.132 0.4524-0.418 0.8437-0.808 1.1055s-0.858 0.3774-1.324 0.3266c-0.325 0.0086-0.647-0.0539-0.945-0.183-0.297-0.1292-0.564-0.3221-0.78-0.5651-0.216-0.2431-0.377-0.5306-0.472-0.8426s-0.121-0.641-0.077-0.9642c-0.043-0.3241-0.016-0.6538 0.078-0.9668 0.095-0.3129 0.255-0.6017 0.47-0.847 0.215-0.2452 0.48-0.441 0.777-0.5743 0.297-0.1332 0.619-0.2007 0.944-0.1979 1.369 0 2.196 0.9409 2.196 2.4953v0.3408h-3.475v0.0548c-0.015 0.1816 7e-3 0.3644 0.066 0.5367s0.154 0.3303 0.277 0.4638c0.124 0.1335 0.273 0.2396 0.44 0.3115 0.166 0.0719 0.346 0.108 0.527 0.106 0.233 0.028 0.468-0.014 0.676-0.1209 0.209-0.1068 0.381-0.2737 0.495-0.4792h0.935zm-3.416-1.5951h2.485c0.012-0.1661-0.01-0.333-0.066-0.4899-0.055-0.1568-0.143-0.3003-0.257-0.421-0.114-0.1208-0.252-0.2162-0.405-0.2801-0.153-0.064-0.318-0.0951-0.483-0.0912-0.168-0.0022-0.335 0.0295-0.49 0.0932-0.156 0.0637-0.297 0.1581-0.416 0.2776s-0.212 0.2617-0.276 0.4182c-0.063 0.1566-0.094 0.3243-0.092 0.4932z" fill="#fff"/>
</svg>